<svg version="1.1" style="display:inline-block;fill:#ffffff;" xmlns="http://www.w3.org/2000/svg" width="20" height="20" viewBox="0 0 32 32">
	<path d="M29.667 24.813l-7.104-7.105c0.742-1.451 1.177-3.166 1.177-4.982 0-0.003 0-0.006 0-0.009v0c0-6.176-5.024-11.2-11.2-11.2s-11.2 5.024-11.2 11.2 5.024 11.2 11.2 11.2c1.902 0 3.693-0.478 5.264-1.317l7.017 6.953c0.64 0.64 1.492 0.886 2.399 0.886h0.017c0.91 0 1.767-0.256 2.413-0.902s1.004-1.408 1.009-2.318c0-0.009 0-0.019 0-0.029 0-0.929-0.379-1.77-0.992-2.376l-0-0zM21.904 24.114l2.246-2.246 0.726 0.725-2.243 2.243-0.729-0.721zM3.169 12.717c0-5.176 4.196-9.371 9.371-9.371s9.371 4.195 9.371 9.371c0 5.177-4.196 9.371-9.371 9.371s-9.371-4.195-9.371-9.371zM21.588 19.308l1.916 1.914-2.25 2.249-1.897-1.876c0.852-0.66 1.587-1.413 2.209-2.256l0.022-0.031zM28.358 28.244c-0.303 0.303-0.704 0.366-1.13 0.366h-0.008c-0.419 0-0.811-0.060-1.106-0.355l-2.831-2.788 2.24-2.235 2.852 2.851c0.296 0.296 0.459 0.66 0.456 1.082-0.001 0.425-0.17 0.774-0.473 1.078z"></path>
	<path d="M11.554 5.354c-0.178 0-0.355 0.007-0.53 0.021-0.236 0.020-0.42 0.216-0.42 0.456 0 0.253 0.205 0.457 0.457 0.457 0.013 0 0.026-0.001 0.039-0.002l-0.002 0c0.15-0.012 0.302-0.019 0.455-0.019 0.252 0 0.457-0.205 0.457-0.457s-0.205-0.457-0.457-0.457v0zM8.897 5.933c-2.21 1.037-3.714 3.241-3.719 5.797v0.001c0 0.252 0.205 0.457 0.457 0.457s0.457-0.205 0.457-0.457v0c0.004-2.191 1.293-4.079 3.153-4.953l0.034-0.014c0.165-0.072 0.278-0.233 0.278-0.42 0-0.252-0.205-0.457-0.457-0.457-0.074 0-0.143 0.017-0.205 0.048l0.003-0.001z"></path>
</svg>